HIERARCHY
ROOT Hips
{
	OFFSET 55.541302 -5.155856 98.056503
	CHANNELS 6 Xposition Yposition Zposition Xrotation Yrotation Zrotation
	JOINT spine
	{
		OFFSET 0.000000 -0.477352 8.301041
		CHANNELS 3 Xrotation Yrotation Zrotation
		JOINT spine1
		{
			OFFSET 0.000000 -0.000002 10.456497
			CHANNELS 3 Xrotation Yrotation Zrotation
			JOINT spine2
			{
				OFFSET 0.000000 -0.000001 10.019203
				CHANNELS 3 Xrotation Yrotation Zrotation
				JOINT Neck
				{
					OFFSET 0.000000 -1.226414 25.723503
					CHANNELS 3 Xrotation Yrotation Zrotation
					JOINT Head
					{
						OFFSET 0.000000 -0.000001 7.771744
						CHANNELS 3 Xrotation Yrotation Zrotation
						End Site
						{
							OFFSET 0.000000 6.203937 18.811996
						}
					}
				}
				JOINT RightShoulder
				{
					OFFSET -4.218800 0.587437 10.820000
					CHANNELS 3 Xrotation Yrotation Zrotation
					JOINT RightArm
					{
						OFFSET 0.000000 -0.000002 14.191406
						CHANNELS 3 Xrotation Yrotation Zrotation
						JOINT RightArmRoll
						{
							OFFSET 0.000000 -0.000001 7.164078
							CHANNELS 3 Xrotation Yrotation Zrotation
							JOINT RightForeArm
							{
								OFFSET 0.000000 -0.000003 20.866501
								CHANNELS 3 Xrotation Yrotation Zrotation
								JOINT RightForeArmRoll
								{
									OFFSET 0.000000 -0.000001 8.039215
									CHANNELS 3 Xrotation Yrotation Zrotation
									JOINT RightHand
									{
										OFFSET 0.000000 -0.000003 16.132996
										CHANNELS 3 Xrotation Yrotation Zrotation
										End Site
										{
											OFFSET 0.000000 0.000000 0.100006
										}
									}
								}
							}
						}
					}
				}
				JOINT LeftShoulder
				{
					OFFSET 4.218800 0.587437 10.820000
					CHANNELS 3 Xrotation Yrotation Zrotation
					JOINT LeftArm
					{
						OFFSET 0.000000 -0.000002 14.191406
						CHANNELS 3 Xrotation Yrotation Zrotation
						JOINT LeftArmRoll
						{
							OFFSET 0.000000 -0.000001 7.164078
							CHANNELS 3 Xrotation Yrotation Zrotation
							JOINT LeftForeArm
							{
								OFFSET 0.000000 -0.000003 20.866501
								CHANNELS 3 Xrotation Yrotation Zrotation
								JOINT LeftForeArmRoll
								{
									OFFSET 0.000000 -0.000001 8.039215
									CHANNELS 3 Xrotation Yrotation Zrotation
									JOINT LeftHand
									{
										OFFSET 0.000000 -0.000003 16.132996
										CHANNELS 3 Xrotation Yrotation Zrotation
										End Site
										{
											OFFSET 0.000000 0.000000 0.100006
										}
									}
								}
							}
						}
					}
				}
			}
		}
	}
	JOINT RightUpLeg
	{
		OFFSET -7.357731 1.131820 -1.349213
		CHANNELS 3 Xrotation Yrotation Zrotation
		JOINT RightUpLegRoll
		{
			OFFSET 0.000000 -0.000003 18.916801
			CHANNELS 3 Xrotation Yrotation Zrotation
			JOINT RightLeg
			{
				OFFSET 0.000000 0.000004 -23.425598
				CHANNELS 3 Xrotation Yrotation Zrotation
				JOINT RightLegRoll
				{
					OFFSET 0.000000 -0.000004 23.502296
					CHANNELS 3 Xrotation Yrotation Zrotation
					JOINT RightFoot
					{
						OFFSET 0.000000 -0.000003 19.561707
						CHANNELS 3 Xrotation Yrotation Zrotation
						JOINT RightToeBase
						{
							OFFSET 0.000000 -0.000003 16.352600
							CHANNELS 3 Xrotation Yrotation Zrotation
							End Site
							{
								OFFSET 0.006931 0.912836 7.919434
							}
						}
					}
				}
			}
		}
	}
	JOINT LeftUpLeg
	{
		OFFSET 7.357731 1.131820 -1.349213
		CHANNELS 3 Xrotation Yrotation Zrotation
		JOINT LeftUpLegRoll
		{
			OFFSET 0.000000 -0.000003 18.916901
			CHANNELS 3 Xrotation Yrotation Zrotation
			JOINT LeftLeg
			{
				OFFSET 0.000000 -0.000004 23.425507
				CHANNELS 3 Xrotation Yrotation Zrotation
				JOINT LeftLegRoll
				{
					OFFSET 0.000000 -0.000004 23.719498
					CHANNELS 3 Xrotation Yrotation Zrotation
					JOINT LeftFoot
					{
						OFFSET 0.000000 -0.000003 19.344406
						CHANNELS 3 Xrotation Yrotation Zrotation
						JOINT LeftToeBase
						{
							OFFSET 0.000000 -0.000003 16.352600
							CHANNELS 3 Xrotation Yrotation Zrotation
							End Site
							{
								OFFSET -0.031063 0.912835 7.919434
							}
						}
					}
				}
			}
		}
	}
}
MOTION
Frames: 6
Frame Time: 0.041667
41.108597 -3.255567 98.794106 -3.079260 -0.246971 -0.052008 -0.489784 -0.291434 0.149359 3.024466 -0.582602 0.299056 4.669549 -0.578978 0.306014 19.523204 10.407655 2.018271 -1.819385 -4.996353 2.604843 2.159567 -53.788498 3.227415 136.457781 -24.871114 95.447837 -0.000002 -0.000010 -0.000007 69.752105 -20.687373 10.194760 -0.000003 0.000002 -3.005302 -4.999841 -7.999195 -0.000162 -0.313265 64.828064 1.097721 81.102725 55.503575 -82.562849 -0.000001 0.000003 0.000002 32.744262 13.299943 -2.872656 -0.000000 -0.000010 3.000010 -5.000198 7.998693 0.000007 -3.202921 -174.404700 1.677987 179.999991 -0.000005 -1.152002 169.466938 -3.336939 -1.005082 -0.000008 -0.000000 0.121093 67.630757 6.927968 2.133450 25.456890 -7.347925 0.000003 -1.009903 175.912642 0.477125 -0.000004 -0.000005 -1.147750 -11.062045 4.280532 1.115449 -0.000000 0.000001 -0.150243 69.751053 -6.896897 -2.065106 25.456948 7.355613 -0.000010 
41.126499 -3.250334 98.868408 -3.088926 -0.241751 -0.010637 -0.485366 -0.293192 0.149988 3.033259 -0.586118 0.300404 4.678342 -0.582478 0.307403 19.584446 10.326408 2.074852 -1.895247 -4.898944 2.653891 2.132315 -53.883605 3.181123 136.369494 -25.081259 95.564667 -0.000001 -0.000009 -0.000004 69.664398 -20.633962 10.152945 -0.000004 0.000001 -3.005300 -4.999841 -7.999197 -0.000163 -0.345607 64.819288 1.133488 81.203340 55.575180 -82.678702 0.000001 -0.000000 0.000003 32.934206 13.249968 -2.871722 -0.000003 -0.000010 3.000011 -5.000199 7.998695 0.000005 -3.277155 -174.397105 1.677724 179.999991 -0.000005 -1.152002 169.306497 -3.324385 -1.013378 -0.000007 -0.000000 0.123895 67.657293 6.927886 2.132365 25.456887 -7.347926 0.000004 -0.993853 175.898613 0.464696 -0.000005 -0.000004 -1.147240 -11.036953 4.286129 1.114081 -0.000001 0.000001 -0.150243 69.740466 -6.896910 -2.065266 25.456943 7.355613 -0.000011 
41.014996 -3.215515 98.850006 -3.098897 -0.236394 0.030501 -0.480882 -0.294954 0.150583 3.042182 -0.589648 0.301713 4.687275 -0.585993 0.308755 19.645613 10.245591 2.131426 -1.971082 -4.802472 2.703076 2.104709 -53.977114 3.134565 136.284814 -25.290288 95.684243 0.000000 -0.000009 -0.000007 69.576787 -20.580550 10.111323 -0.000004 0.000001 -3.005301 -4.999842 -7.999196 -0.000162 -0.378203 64.810518 1.169538 81.302009 55.645182 -82.793115 -0.000002 -0.000001 0.000004 33.121172 13.200528 -2.870139 -0.000003 -0.000010 3.000007 -5.000196 7.998695 0.000008 -3.351444 -174.389551 1.676577 179.999991 -0.000004 -1.152002 169.145250 -3.311807 -1.022667 -0.000008 -0.000000 0.126710 67.685105 6.927866 2.131011 25.456890 -7.347925 0.000004 -0.976679 175.884597 0.452411 -0.000004 -0.000005 -1.146720 -11.010454 4.291433 1.112627 -0.000001 0.000001 -0.150243 69.729149 -6.896927 -2.065374 25.456945 7.355613 -0.000011 
41.039505 -3.220504 98.873711 -3.109063 -0.230945 0.071477 -0.476350 -0.296717 0.151155 3.051204 -0.593187 0.302998 4.696289 -0.589518 0.310083 19.706720 10.165205 2.188021 -2.046898 -4.706689 2.752441 2.076847 -54.069509 3.087806 136.203165 -25.498875 95.805827 0.000000 -0.000009 -0.000008 69.489259 -20.527152 10.069803 -0.000005 0.000002 -3.005301 -4.999840 -7.999193 -0.000162 -0.410967 64.801631 1.205773 81.399299 55.714055 -82.906434 -0.000001 -0.000001 0.000003 33.305894 13.151706 -2.868098 -0.000002 -0.000011 3.000011 -5.000198 7.998693 0.000004 -3.425762 -174.382980 1.674864 179.999991 -0.000005 -1.152002 168.983716 -3.298221 -1.031699 -0.000007 -0.000000 0.129533 67.713874 6.927876 2.129604 25.456889 -7.347925 0.000004 -0.958726 175.870568 0.440223 -0.000005 -0.000005 -1.146200 -10.982948 4.296515 1.111111 -0.000000 0.000001 -0.150243 69.717182 -6.896956 -2.065423 25.456947 7.355611 -0.000011 
41.081905 -3.332124 98.893211 -3.119355 -0.225450 0.112360 -0.471788 -0.298481 0.151712 3.060266 -0.596732 0.304266 4.705363 -0.593049 0.311395 19.767648 10.085159 2.244708 -2.122696 -4.611360 2.802006 2.048755 -54.161413 3.040834 136.123949 -25.706824 95.929474 -0.000001 -0.000010 -0.000007 69.401866 -20.473642 10.028503 -0.000004 0.000002 -3.005301 -4.999841 -7.999197 -0.000161 -0.443819 64.792739 1.242108 81.496110 55.782114 -83.019419 -0.000001 -0.000000 0.000005 33.489377 13.103184 -2.865608 -0.000002 -0.000010 3.000011 -5.000201 7.998692 0.000008 -3.500114 -174.375454 1.672732 179.999991 -0.000005 -1.152002 168.821813 -3.283651 -1.041503 -0.000008 -0.000000 0.132361 67.743175 6.927878 2.128263 25.456889 -7.347926 0.000003 -0.940316 175.856566 0.428087 -0.000005 -0.000004 -1.145670 -10.954938 4.301479 1.109561 -0.000000 0.000001 -0.150243 69.704799 -6.896998 -2.065599 25.456945 7.355613 -0.000012 
41.053501 -3.305664 98.875900 -3.129673 -0.219956 0.153220 -0.467221 -0.300246 0.152267 3.069349 -0.600278 0.305533 4.714446 -0.596580 0.312705 19.828596 10.005259 2.301569 -2.198461 -4.516250 2.851824 2.020528 -54.253012 2.993700 136.046522 -25.914749 96.054528 0.000000 -0.000009 -0.000006 69.314522 -20.420100 9.987197 -0.000004 0.000001 -3.005299 -4.999840 -7.999194 -0.000161 -0.476675 64.783832 1.278447 81.593023 55.850013 -83.132480 -0.000001 0.000003 0.000002 33.672430 13.054923 -2.862829 -0.000001 -0.000010 3.000008 -5.000196 7.998692 0.000007 -3.574465 -174.368897 1.670550 179.999991 -0.000005 -1.153000 168.659992 -3.269057 -1.050210 -0.000008 -0.000000 0.135191 67.772579 6.927868 2.126912 25.456887 -7.347925 0.000003 -0.921797 175.842551 0.415958 -0.000005 -0.000004 -1.145150 -10.926826 4.306410 1.108002 -0.000000 0.000001 -0.150243 69.692423 -6.897037 -2.065676 25.456948 7.355613 -0.000012 
